HIERARCHY
ROOT Hips
{
	OFFSET 0.00000 0.00000 0.00000
	CHANNELS 6 Xposition Yposition Zposition Yrotation Zrotation Xrotation 
	JOINT Lumbar
	{
		OFFSET 0 0 0
		CHANNELS 3 Zrotation Xrotation Yrotation
		JOINT Neck
		{
			OFFSET 0.00 0.2701 0.00
			CHANNELS 3 Zrotation Xrotation Yrotation
			End Site
			{
				OFFSET 0.00 0.1379 0.00
			}
		}
		JOINT RightShoulder
		{
			OFFSET 0.0119 0.2289 0.1181
			CHANNELS 3 Zrotation Xrotation Yrotation
			JOINT RightElbow
			{
				OFFSET 0.00 -0.1475 0.00
				CHANNELS 2 Zrotation Yrotation
				JOINT RightWrist
				{
					OFFSET 0.00 -0.1605 0.00
					CHANNELS 2 Zrotation Xrotation
					End Site
					{
						OFFSET 0.0040 -0.1068 0.0006
					}
				}
			}
		}
		JOINT LeftShoulder
		{
			OFFSET 0.0119 0.2289 -0.1181
			CHANNELS 3 Zrotation Xrotation Yrotation
			JOINT LeftElbow
			{
				OFFSET 0.00 -0.1475 0.00
				CHANNELS 2 Zrotation Yrotation
				JOINT LeftWrist
				{
					OFFSET 0.00 -0.1605 0.00
					CHANNELS 2 Zrotation Xrotation
					End Site
					{
						OFFSET 0.0040 -0.1068 -0.0006
					}
				}
			}
		}
	}
	JOINT RightHip
	{
		OFFSET 0.0316 -0.0424 0.0458
		CHANNELS 3 Zrotation Xrotation Yrotation
		JOINT RightKnee
		{
			OFFSET 0.00 -0.2438 0.00
			CHANNELS 1 Zrotation
			JOINT RightAnkle
			{
				OFFSET 0.00 -0.2449 0.00
				CHANNELS 3 Zrotation Xrotation Yrotation
				End Site
				{
					OFFSET 0.1237 -0.0542 0.0051
				}
			}
		}
	}
	JOINT LeftHip
	{
		OFFSET 0.0316 -0.0424 -0.0458
		CHANNELS 3 Zrotation Xrotation Yrotation
		JOINT LeftKnee
		{
			OFFSET 0.00 -0.2438 0.00
			CHANNELS 1 Zrotation
			JOINT LeftAnkle
			{
				OFFSET 0.00 -0.2449 0.00
				CHANNELS 3 Zrotation Xrotation Yrotation
				End Site
				{
					OFFSET 0.1237 -0.0542 -0.0051
				}
			}
		}
	}
}
MOTION
Frames: 11
Frame Time: 0.02
-0 0.57926 -0 180.86916 0 3.61588 8.57927 -1.63096 -2.20547 -33.53797 1.67575 4.50768 26.01653 -13.99447 -10.42075 9.67725 82.79991 0.66711 0.42105 27.2461 4.84301 21.94153 6.39431 -76.66201 -4.25139 -1.12114 2.99085 3.59929 11.45044 -21.66213 12.07544 -9.76872 -12.96827 3.19186 -3.44882 -17.02634 -18.58695 8.81645 6.8129 10.35329
-4e-05 0.57926 1e-05 180.95063 0 3.62908 8.57339 -1.67635 -2.19942 -33.87719 1.68193 4.5289 26.2752 -13.97659 -10.81247 9.6452 82.866 0.72476 0.8576 27.77144 5.03851 20.72056 6.57496 -76.66777 -4.17125 -1.11756 3.01323 3.5935 11.41359 -21.72523 12.08687 -9.78069 -13.01298 3.20351 -3.46439 -17.06985 -18.58766 8.80802 6.80228 10.32938
-8e-05 0.57926 3e-05 181.03192 0 3.642 8.56745 -1.72136 -2.19318 -34.21351 1.68787 4.54971 26.53129 -13.95853 -11.20256 9.61379 82.93138 0.78156 1.29039 28.29254 5.23648 19.49099 6.75956 -76.67617 -4.09445 -1.1118 3.03519 3.58779 11.3765 -21.78744 12.09802 -9.79242 -13.05733 3.21527 -3.47984 -17.11355 -18.58874 8.79969 6.7918 10.30575
-0.00012 0.57926 5e-05 181.11512 0 3.65432 8.56045 -1.7656 -2.18762 -34.54053 1.69393 4.56874 26.7795 -13.9403 -11.58603 9.58275 82.99501 0.83535 1.71223 28.80476 5.4392 18.24151 6.94617 -76.68622 -4.02282 -1.10127 3.05652 3.58202 11.33701 -21.8479 12.10889 -9.80405 -13.10115 3.22834 -3.49538 -17.15938 -18.59148 8.79169 6.7816 10.28225
-0.00017 0.57926 5e-05 181.1904 0 3.67033 8.55815 -1.81432 -2.18031 -34.91557 1.70057 4.59674 27.0694 -13.92379 -11.99967 9.5474 83.06846 0.90488 2.19194 29.36781 5.60813 17.12901 7.10292 -76.67682 -3.91485 -1.12076 3.08218 3.57618 11.30887 -21.91909 12.12214 -9.8171 -13.14839 3.23539 -3.51094 -17.1951 -18.58564 8.78194 6.76973 10.25713
-0.0002 0.57926 9e-05 181.28087 0 3.67817 8.54655 -1.85324 -2.17544 -35.1895 1.70512 4.60604 27.27086 -13.90311 -12.35244 9.52282 83.12073 0.94121 2.54883 29.82016 5.85423 15.70655 7.33579 -76.71581 -3.88991 -1.07351 3.09798 3.57073 11.25766 -21.9665 12.12974 -9.82653 -13.1879 3.25452 -3.52611 -17.25136 -18.59777 8.77592 6.76153 10.23609
-0.00015 0.57926 0.00023 181.42932 0 3.6656 8.5028 -1.86713 -2.18718 -35.17507 1.71094 4.56011 27.22422 -13.87467 -12.51525 9.51736 83.11682 0.88152 2.56185 29.98639 6.28219 13.54164 7.69276 -76.83168 -4.05126 -0.86208 3.09181 3.56449 11.13198 -21.95575 12.12627 -9.83072 -13.21002 3.31419 -3.54327 -17.37421 -18.66313 8.78035 6.76247 10.22089
-8e-05 0.57927 0.0004 181.58988 0 3.64422 8.45092 -1.87062 -2.19896 -35.06051 1.71329 4.49626 27.08888 -13.84133 -12.6225 9.52645 83.09129 0.78862 2.45065 30.03474 6.79638 11.04445 8.14944 -77.00556 -4.30457 -0.58016 3.07472 3.55911 10.98527 -21.91956 12.11611 -9.83025 -13.22352 3.38472 -3.55933 -17.51572 -18.74601 8.78863 6.76737 10.21082
-4e-05 0.57928 0.00056 181.73519 0 3.62568 8.4068 -1.87772 -2.20506 -34.99732 1.71275 4.44244 26.99664 -13.80771 -12.76749 9.53358 83.0739 0.7142 2.40078 30.12791 7.28929 8.61752 8.6086 -77.19183 -4.54395 -0.31608 3.05921 3.55435 10.85446 -21.8902 12.10627 -9.82902 -13.23857 3.4458 -3.57415 -17.64292 -18.81861 8.79497 6.77105 10.2019
7e-05 0.57927 0.00072 181.9234 0 3.61269 8.34509 -1.8901 -2.23752 -34.90824 1.73138 4.37922 26.89292 -13.78451 -12.85287 9.51395 83.06285 0.62726 2.33488 30.26908 7.69787 6.51545 8.83886 -77.22037 -4.66551 -0.10854 3.05799 3.54472 10.69512 -21.88107 12.10858 -9.84055 -13.26407 3.52629 -3.59703 -17.79635 -18.90102 8.80174 6.77206 10.17817
4e-05 0.5793 0.00088 182.02291 0 3.58522 8.31864 -1.8883 -2.21198 -34.85072 1.70886 4.3331 26.79165 -13.73865 -13.05781 9.56246 83.03443 0.55628 2.26713 30.26834 8.31352 3.67822 9.60363 -77.5839 -5.05455 0.22926 3.02442 3.54619 10.59242 -21.82345 12.08319 -9.82361 -13.26519 3.56849 -3.60197 -17.89754 -18.9671 8.80896 6.77986 10.18665
